<svg width="248" height="82" viewBox="0 0 248 82" fill="none" xmlns="http://www.w3.org/2000/svg">
<path d="M109.71 53.7349C107.964 53.7349 106.392 53.4356 104.996 52.8369C103.599 52.2133 102.501 51.3403 101.703 50.2178C100.905 49.0953 100.506 47.7858 100.506 46.2891H105.07C105.17 47.4116 105.607 48.3345 106.38 49.0579C107.178 49.7813 108.288 50.143 109.71 50.143C111.182 50.143 112.329 49.7938 113.152 49.0953C113.975 48.372 114.387 47.449 114.387 46.3265C114.387 45.4535 114.125 44.7426 113.601 44.1938C113.102 43.645 112.466 43.221 111.693 42.9217C110.945 42.6223 109.897 42.2981 108.55 41.9488C106.854 41.4999 105.469 41.0509 104.397 40.6019C103.349 40.1279 102.451 39.4046 101.703 38.4317C100.955 37.4589 100.58 36.1618 100.58 34.5404C100.58 33.0438 100.955 31.7342 101.703 30.6118C102.451 29.4893 103.499 28.6287 104.846 28.03C106.193 27.4314 107.752 27.1321 109.523 27.1321C112.042 27.1321 114.1 27.7681 115.697 29.0403C117.318 30.2875 118.216 32.0086 118.391 34.2037H113.676C113.601 33.2558 113.152 32.4451 112.329 31.7717C111.506 31.0982 110.421 30.7614 109.074 30.7614C107.852 30.7614 106.854 31.0732 106.081 31.6968C105.307 32.3204 104.921 33.2184 104.921 34.3908C104.921 35.189 105.158 35.85 105.632 36.3738C106.13 36.8727 106.754 37.2718 107.502 37.5712C108.251 37.8705 109.273 38.1948 110.571 38.544C112.292 39.0179 113.689 39.4919 114.761 39.9658C115.859 40.4397 116.782 41.1756 117.53 42.1733C118.303 43.1462 118.69 44.4557 118.69 46.102C118.69 47.4241 118.328 48.6713 117.605 49.8437C116.906 51.016 115.871 51.9639 114.499 52.6873C113.152 53.3857 111.556 53.7349 109.71 53.7349ZM128.699 36.3364V47.7484C128.699 48.5216 128.874 49.0829 129.223 49.4321C129.597 49.7564 130.221 49.9185 131.094 49.9185H133.713V53.473H130.346C128.425 53.473 126.953 53.024 125.93 52.126C124.908 51.2281 124.396 49.7688 124.396 47.7484V36.3364H121.964V32.8567H124.396V27.7307H128.699V32.8567H133.713V36.3364H128.699ZM146.587 53.8098C144.641 53.8098 142.883 53.3732 141.311 52.5002C139.74 51.6022 138.505 50.355 137.607 48.7586C136.709 47.1372 136.26 45.2664 136.26 43.1462C136.26 41.0509 136.721 39.1925 137.644 37.5712C138.567 35.9498 139.827 34.7026 141.423 33.8295C143.02 32.9565 144.803 32.52 146.774 32.52C148.744 32.52 150.528 32.9565 152.124 33.8295C153.721 34.7026 154.98 35.9498 155.903 37.5712C156.826 39.1925 157.288 41.0509 157.288 43.1462C157.288 45.2415 156.814 47.0998 155.866 48.7212C154.918 50.3425 153.621 51.6022 151.975 52.5002C150.353 53.3732 148.557 53.8098 146.587 53.8098ZM146.587 50.1056C147.684 50.1056 148.707 49.8437 149.655 49.3198C150.628 48.796 151.413 48.0103 152.012 46.9626C152.611 45.915 152.91 44.6428 152.91 43.1462C152.91 41.6495 152.623 40.3898 152.05 39.3671C151.476 38.3195 150.715 37.5337 149.767 37.0099C148.819 36.4861 147.797 36.2242 146.699 36.2242C145.601 36.2242 144.579 36.4861 143.631 37.0099C142.708 37.5337 141.972 38.3195 141.423 39.3671C140.875 40.3898 140.6 41.6495 140.6 43.1462C140.6 45.3662 141.161 47.0873 142.284 48.3096C143.431 49.5069 144.866 50.1056 146.587 50.1056ZM165.77 35.85C166.393 34.8024 167.217 33.9917 168.239 33.418C169.287 32.8193 170.522 32.52 171.944 32.52V36.9351H170.858C169.187 36.9351 167.915 37.3591 167.042 38.2072C166.194 39.0553 165.77 40.527 165.77 42.6223V53.473H161.504V32.8567H165.77V35.85ZM174.443 43.0713C174.443 41.001 174.867 39.1676 175.715 37.5712C176.588 35.9747 177.76 34.74 179.232 33.867C180.728 32.969 182.375 32.52 184.171 32.52C185.792 32.52 187.201 32.8443 188.399 33.4928C189.621 34.1164 190.594 34.9021 191.317 35.85V32.8567H195.62V53.473H191.317V50.4049C190.594 51.3777 189.609 52.1884 188.361 52.8369C187.114 53.4855 185.692 53.8098 184.096 53.8098C182.325 53.8098 180.703 53.3608 179.232 52.4628C177.76 51.5399 176.588 50.2677 175.715 48.6463C174.867 47 174.443 45.1417 174.443 43.0713ZM191.317 43.1462C191.317 41.7244 191.018 40.4896 190.419 39.442C189.846 38.3943 189.085 37.5961 188.137 37.0473C187.189 36.4986 186.166 36.2242 185.069 36.2242C183.971 36.2242 182.948 36.4986 182.001 37.0473C181.053 37.5712 180.279 38.3569 179.681 39.4045C179.107 40.4273 178.82 41.6495 178.82 43.0713C178.82 44.4931 179.107 45.7404 179.681 46.8129C180.279 47.8855 181.053 48.7087 182.001 49.2824C182.973 49.8312 183.996 50.1056 185.069 50.1056C186.166 50.1056 187.189 49.8312 188.137 49.2824C189.085 48.7336 189.846 47.9354 190.419 46.8878C191.018 45.8152 191.317 44.568 191.317 43.1462ZM209.529 32.52C211.125 32.52 212.535 32.8443 213.757 33.4928C215.004 34.1164 215.977 34.9021 216.675 35.85V32.8567H220.978V53.8098C220.978 55.7055 220.579 57.3892 219.781 58.8609C218.983 60.3576 217.823 61.53 216.301 62.3781C214.805 63.2262 213.009 63.6502 210.913 63.6502C208.12 63.6502 205.8 62.9892 203.954 61.6672C202.108 60.3701 201.06 58.599 200.811 56.3541H205.039C205.363 57.4267 206.049 58.2872 207.097 58.9358C208.169 59.6093 209.442 59.946 210.913 59.946C212.634 59.946 214.019 59.4222 215.067 58.3745C216.139 57.3269 216.675 55.8053 216.675 53.8098V50.3675C215.952 51.3403 214.967 52.1635 213.72 52.8369C212.497 53.4855 211.1 53.8098 209.529 53.8098C207.733 53.8098 206.087 53.3608 204.59 52.4628C203.118 51.5399 201.946 50.2677 201.073 48.6463C200.225 47 199.801 45.1417 199.801 43.0713C199.801 41.001 200.225 39.1676 201.073 37.5712C201.946 35.9747 203.118 34.74 204.59 33.867C206.087 32.969 207.733 32.52 209.529 32.52ZM216.675 43.1462C216.675 41.7244 216.376 40.4896 215.777 39.442C215.204 38.3943 214.443 37.5961 213.495 37.0473C212.547 36.4986 211.524 36.2242 210.427 36.2242C209.329 36.2242 208.307 36.4986 207.359 37.0473C206.411 37.5712 205.638 38.3569 205.039 39.4045C204.465 40.4273 204.178 41.6495 204.178 43.0713C204.178 44.4931 204.465 45.7404 205.039 46.8129C205.638 47.8855 206.411 48.7087 207.359 49.2824C208.332 49.8312 209.354 50.1056 210.427 50.1056C211.524 50.1056 212.547 49.8312 213.495 49.2824C214.443 48.7336 215.204 47.9354 215.777 46.8878C216.376 45.8152 216.675 44.568 216.675 43.1462ZM245.476 42.6598C245.476 43.433 245.426 44.1315 245.326 44.7551H229.574C229.699 46.4014 230.31 47.7234 231.407 48.7212C232.505 49.7189 233.852 50.2178 235.448 50.2178C237.743 50.2178 239.365 49.2575 240.312 47.3368H244.915C244.291 49.2325 243.156 50.7915 241.51 52.0138C239.888 53.2111 237.868 53.8098 235.448 53.8098C233.478 53.8098 231.707 53.3732 230.135 52.5002C228.589 51.6022 227.367 50.355 226.469 48.7586C225.595 47.1372 225.159 45.2664 225.159 43.1462C225.159 41.0259 225.583 39.1676 226.431 37.5712C227.304 35.9498 228.514 34.7026 230.06 33.8295C231.632 32.9565 233.428 32.52 235.448 32.52C237.394 32.52 239.128 32.944 240.649 33.7921C242.171 34.6402 243.356 35.8375 244.204 37.3841C245.052 38.9057 245.476 40.6642 245.476 42.6598ZM241.023 41.3128C240.998 39.7413 240.437 38.4816 239.34 37.5337C238.242 36.5859 236.883 36.1119 235.261 36.1119C233.79 36.1119 232.53 36.5859 231.482 37.5337C230.435 38.4567 229.811 39.7164 229.611 41.3128H241.023Z" fill="white"/>
<rect opacity="0.2" width="74.8323" height="74.8323" rx="37.4161" fill="white"/>
<rect x="32.739" y="31.1802" width="49.8882" height="49.8882" rx="24.9441" fill="white"/>
</svg>
